<?xml version="1.0" encoding="UTF-8"?>
<svg id="Layer_1" data-name="Layer 1" xmlns="http://www.w3.org/2000/svg" viewBox="0 0 21.22 10.11">
  <path class="logo-dark" d="M13.7,10.1c-1.83,0-3.67-.02-5.5,0-.32-.03-.53-.33-.55-.63l-.64.06c-.15.18-.19.37-.42.47-.24.1-.66.08-.92.07-1.56-.05-2.95-.36-4.12-1.44C-1.37,5.93.06,1,3.89.14,4.56-.01,5.27.02,5.95.02c1.3,0,2.6.01,3.89.01,1,0,2.01-.06,3,0,.5.03.97.05,1.38.36.69.51.95,1.39.84,2.23-.01.11-.04.21-.05.32.14,0,.28,0,.42,0s.25-.02.4.04c.07.03.23.14.29.14.06,0,.23-.13.3-.16.05-.02.1-.03.15-.04,1.29,0,2.57-.02,3.86.01.46.07.76.46.77.91v.03s.01.52.01.52c-.02.04-.01.1-.01.15,0,.23,0,.46,0,.68,0,.13,0,.26,0,.38,0,.44.08,1.08-.29,1.39-.07.06-.39.24-.47.24h-1.32c.01.09.06.18.09.26.29.67,1.04,1.68.21,2.27-.42.3-1.3.41-1.78.21-.11-.05-.18-.12-.27-.2-.09.05-.17.12-.27.16-.33.15-1.02.16-1.4.16-.03,0-.08,0-.11.01h-1.59s-.04-.01-.06-.01c-.08,0-.17,0-.25,0Z"/>
  <path class="logo-light" d="M11.13,8.4h1.33s.06.06.06.06c0,.01,0,.02,0,.04.02.21-.02.46,0,.67,0,.02-.06.08-.07.08h-2.76v-.83s.2-.16.24-.18c.22-.14.45-.27.67-.41.15-.1.33-.2.45-.33h-1.34s-.02-.01-.02-.02v-.83s.01-.02.02-.02h2.75s.08.07.07.09c-.02.23.03.52,0,.74,0,.01,0,.02-.01.03-.48.28-.96.55-1.39.89Z"/>
  <path class="logo-light" d="M16.62,5.09v-1.26s.01-.02.02-.02h.84v2.53h-.91s-.24-.27-.28-.31c-.3-.38-.56-.79-.86-1.17-.01-.03-.09-.04-.09-.01v1.49h-.8s-.02-.01-.02-.02v-2.5s.01-.02.02-.02h1.11l.97,1.27Z"/>
  <path class="logo-light" d="M15.55,6.64v.86l-1.39.89h1.39v.81h-2.78v-.79s.17-.14.21-.17c.33-.22.8-.45,1.09-.71.02-.02.06-.05.06-.08h-1.34s-.02-.01-.02-.02v-.81h2.78Z"/>
  <path class="logo-light" d="M11.36,3.49V.98s.01-.02.02-.02h2.06c.1,0,.43.25.5.34.46.57.38,1.69-.28,2.07-.03.02-.24.12-.26.12h-2.04ZM12.18,1.78v.88s.01.02.02.02h.99s.16-.16.17-.19c.07-.15.06-.53-.06-.66,0-.01-.06-.05-.07-.05h-1.05Z"/>
  <path class="logo-light" d="M5.35,5.49h.87c.07.08.14.18.25.22.18.07.71.06.86-.05.09-.07.1-.19-.02-.24-.19-.07-.54-.04-.76-.06-.4-.03-1.17-.14-1.22-.65-.1-1.03,1.47-1.06,2.15-.92.39.08.73.31.8.73,0,.02.02.12,0,.12h-.87s-.12-.13-.15-.15c-.18-.14-.69-.13-.9-.03-.11.05-.19.17-.06.26s.71.08.91.09c.53.05,1.19.17,1.07.87-.13.74-1.34.77-1.92.71-.54-.05-1.01-.31-1.03-.91Z"/>
  <path class="logo-light" d="M6.96,2.85h-.72v.64h-.81s-.02-.01-.02-.02V.98s.01-.02.02-.02h2.19c.07,0,.35.25.4.32.24.3.26.94.02,1.24-.04.06-.26.22-.26.27,0,.06.34.5.39.61,0,.01.05.09.02.09h-.82c-.16-.19-.27-.43-.41-.64Z"/>
  <path class="logo-light" d="M12.68,3.74c.87-.04,1.56.29,1.61,1.23.05,1.07-.61,1.48-1.61,1.44s-1.45-.48-1.39-1.47c.05-.85.61-1.16,1.4-1.2Z"/>
  <path class="logo-light" d="M5.05,5.2v3.19c-.43,0-.87-.09-1.27-.25-.5-.2-.93-.5-1.29-.91-.06-.07-.28-.33-.27-.42l2.83-1.62Z"/>
  <path class="logo-light" d="M5.05,4.76l-2.86-1.64c.45-.65,1.11-1.17,1.87-1.4.23-.07.47-.11.71-.13.06,0,.2-.01.26,0,0,0,.03,0,.03.02v3.15Z"/>
  <path class="logo-light" d="M20.34,3.82v.65h-1.71v.29h1.71v.61h-1.71v.21s.03.12.05.12h1.66v.65h-2.5s-.07-.06-.07-.07v-2.46h2.57Z"/>
  <path class="logo-light" d="M6.2,8.61v.6h-.82v-2.55s.01-.02.02-.02h2.12s.28.11.33.14c.55.33.57,1.28.07,1.66-.03.02-.26.17-.28.17h-1.43Z"/>
  <path class="logo-light" d="M9.32,1.61v.29h1.56c.05,0,.07.14.07.18,0,.12,0,.25-.01.37,0,.01.02.06,0,.06h-1.61v.33h1.61s.02.01.02.02v.62s-.01.02-.02.02h-2.46s-.02-.01-.02-.02V.98s.01-.02.02-.02h2.46s.02.01.02.02v.62s-.01.02-.02.02h-1.61Z"/>
  <path class="logo-light" d="M2,6.56c-.49-.99-.47-2.16,0-3.15l2.74,1.55-2.74,1.6Z"/>
  <path class="logo-light" d="M19.06,9.21h-.99c-.02-.09-.06-.39-.14-.42-.01,0-.12-.02-.14-.02-.24-.01-.63-.01-.87.02-.07.01-.08.01-.11.07-.02.05-.11.34-.15.34h-.92l1.15-2.5c.11,0,.22-.02.32-.02.14,0,.58-.02.69.03.01,0,.03.01.04.03l1.13,2.47Z"/>
  <path class="logo-light" d="M10.22,6.36h-.8s-.07-.06-.07-.07v-1.68h-.97s-.02-.01-.02-.02v-.75s.01-.02.02-.02h2.84s.02.01.02.02v.75s-.01.02-.02.02h-.95s-.06.05-.06.06v1.69Z"/>
  <path class="logo-light" d="M9.36,9.21h-.87v-2.49s.06-.07.07-.07h.78s.02.01.02.02v2.55Z"/>
  <path class="logo-light" d="M5.05,8.65l-.02.44c-.05,0-.11,0-.15-.01-.18,0-.33,0-.52-.02-1.11-.18-2.22-.89-2.76-1.87.06-.06.28-.22.36-.19.03.01.15.22.18.27.11.15.3.33.44.46.67.61,1.57.98,2.48.93Z"/>
  <path class="logo-light" d="M5.05.88v.43c-.87-.04-1.68.29-2.34.83-.17.14-.4.34-.53.51-.06.08-.17.3-.28.31-.05,0-.26-.1-.28-.14,0-.01,0-.02,0-.03,0-.13.27-.46.37-.56.77-.84,1.92-1.35,3.06-1.35Z"/>
  <path class="logo-light" d="M1.43,3.07s.03,0,.05,0c.03,0,.23.1.26.12.01,0,.02,0,.02.03,0,.02-.03.13-.04.16-.07.23-.16.45-.23.68-.19.61-.16,1.51.06,2.11.05.15.15.3.19.45.01.04.04.12.01.15l-.32.18c-.28-.48-.44-1.03-.49-1.59-.05-.66.07-1.48.35-2.09.02-.05.09-.19.14-.2Z"/>
  <path class="logo-dark" d="M12.18,1.78h1.05s.06.04.07.05c.12.13.13.5.06.66-.01.03-.16.19-.17.19h-.99s-.02-.01-.02-.02v-.88Z"/>
  <path class="logo-dark" d="M6.24,2.12v-.43h1.07s.03.04.04.05c.04.07.04.25,0,.33,0,.02-.05.06-.06.06h-1.05Z"/>
  <path class="logo-dark" d="M12.75,4.54c.44-.02.77.22.66.7s-1.14.52-1.27,0c-.11-.44.21-.68.61-.69Z"/>
  <path class="logo-dark" d="M7.34,7.41c.1.02.1.34.04.41,0,0-.05.03-.06.03h-1.11s-.02-.01-.02-.02v-.41s.01-.02.02-.02h1.13Z"/>
  <path class="logo-dark" d="M17.11,8.19s-.02-.02-.02-.03c0-.04.09-.28.11-.34s.14-.35.17-.37c.07-.03.07.03.08.07.08.21.18.42.24.64,0,0-.01.02-.01.02h-.57Z"/>
</svg>
